{
  "source": "C:\\Users\\Peter\\Desktop\\stuff\\MIUN\\quantitative_research\\video_compression\\videos\\BVI-HD\\BVI-HD_CDVL_videos\\ORIG\\FishAndRock_1920x1080_30fps.mp4",
  "output": "C:\\Users\\Peter\\Desktop\\stuff\\MIUN\\quantitative_research\\video_compression\\compressed_videos\\BVI-HD\\hevc\\1.5\\FishAndRock_1920x1080_30fps_hevc.mp4",
  "codec": "hevc",
  "ok": "Input #0, mov,mp4,m4a,3gp,3g2,mj2, from 'C:\\Users\\Peter\\Desktop\\stuff\\MIUN\\quantitative_research\\video_compression\\videos\\BVI-HD\\BVI-HD_CDVL_videos\\ORIG\\FishAndRock_1920x1080_30fps.mp4':\n  Metadata:\n    major_brand     : isom\n    minor_version   : 512\n    compatible_brands: isomiso2avc1mp41\n    encoder         : Lavf54.28.101\n  Duration: 00:00:05.00, start: 0.000000, bitrate: 251564 kb/s\n  Stream #0:0[0x1](und): Video: h264 (High 4:4:4 Predictive) (avc1 / 0x31637661), yuv420p(progressive), 1920x1080, 251561 kb/s, 30 fps, 30 tbr, 30 tbn (default)\n    Metadata:\n      handler_name    : VideoHandler\n      vendor_id       : [0][0][0][0]\n[out#0/mp4 @ 00000272e1401700] Codec AVOption b:a (set bitrate (in bits/s)) has not been used for any stream. The most likely reason is either wrong type (e.g. a video option with no video streams) or that it is a private option of some decoder which was not actually used for any stream.\nStream mapping:\n  Stream #0:0 -> #0:0 (h264 (native) -> hevc (libx265))\nPress [q] to stop, [?] for help\n[libx265 @ 00000272e1f10180] Unknown option: \"aq-mode.\nx265 [info]: HEVC encoder version 4.1+190-8f11c33ac\nx265 [info]: build info [Windows][GCC 15.1.0][64 bit] 10bit\nx265 [info]: using cpu capabilities: MMX2 SSE2Fast LZCNT SSSE3 SSE4.2 AVX FMA3 BMI2 AVX2\nx265 [info]: Main 10 profile, Level-4 (Main tier)\nx265 [info]: Thread pool created using 12 threads\nx265 [info]: Slices                              : 1\nx265 [info]: frame threads / pool features       : 3 / wpp(17 rows)\nx265 [info]: Coding QT: max CU size, min CU size : 64 / 8\nx265 [info]: Residual QT: max TU size, max depth : 32 / 1 inter / 1 intra\nx265 [info]: ME / range / subpel / merge         : star / 57 / 3 / 3\nx265 [info]: Keyframe min / max / scenecut / bias  : 25 / 250 / 40 / 5.00 \nx265 [info]: Lookahead / bframes / badapt        : 25 / 4 / 2\nx265 [info]: b-pyramid / weightp / weightb       : 1 / 1 / 0\nx265 [info]: References / ref-limit  cu / depth  : 4 / on / on\nx265 [info]: AQ: mode / str / qg-size / cu-tree  : 2 / 1.0 / 32 / 1\nx265 [info]: Rate Control / qCompress            : ABR-1500 kbps / 0.60\nx265 [info]: VBV/HRD buffer / max-rate / init    : 1500 / 1500 / 0.750\nx265 [info]: tools: rect limit-modes rd=4 psy-rd=2.00 rdoq=2 psy-rdoq=1.00\nx265 [info]: tools: rskip mode=1 signhide tmvp strong-intra-smoothing lslices=4\nx265 [info]: tools: deblock sao dhdr10-info\nOutput #0, mp4, to 'C:\\Users\\Peter\\Desktop\\stuff\\MIUN\\quantitative_research\\video_compression\\compressed_videos\\BVI-HD\\hevc\\1.5\\FishAndRock_1920x1080_30fps_hevc.mp4':\n  Metadata:\n    major_brand     : isom\n    minor_version   : 512\n    compatible_brands: isomiso2avc1mp41\n    encoder         : Lavf62.3.100\n  Stream #0:0(und): Video: hevc (hev1 / 0x31766568), yuv420p10le(tv, progressive), 1920x1080, q=2-31, 1500 kb/s, 30 fps, 15360 tbn (default)\n    Metadata:\n      encoder         : Lavc62.11.100 libx265\n      handler_name    : VideoHandler\n      vendor_id       : [0][0][0][0]\n    Side data:\n      cpb: bitrate max/min/avg: 1500000/0/1500000 buffer size: 1500000 vbv_delay: N/A\nframe=    0 fps=0.0 q=0.0 size=       0KiB time=N/A bitrate=N/A speed=N/A elapsed=0:00:01.09    \nframe=    0 fps=0.0 q=0.0 size=       0KiB time=N/A bitrate=N/A speed=N/A elapsed=0:00:01.64    \nframe=    0 fps=0.0 q=0.0 size=       0KiB time=N/A bitrate=N/A speed=N/A elapsed=0:00:02.17    \nframe=    0 fps=0.0 q=0.0 size=       0KiB time=N/A bitrate=N/A speed=N/A elapsed=0:00:02.68    \nframe=    0 fps=0.0 q=0.0 size=       0KiB time=N/A bitrate=N/A speed=N/A elapsed=0:00:03.20    \nframe=    0 fps=0.0 q=0.0 size=       0KiB time=N/A bitrate=N/A speed=N/A elapsed=0:00:03.70    \nframe=    0 fps=0.0 q=0.0 size=       0KiB time=N/A bitrate=N/A speed=N/A elapsed=0:00:04.23    \nframe=    0 fps=0.0 q=0.0 size=       0KiB time=N/A bitrate=N/A speed=N/A elapsed=0:00:04.74    \nframe=    0 fps=0.0 q=0.0 size=       0KiB time=N/A bitrate=N/A speed=N/A elapsed=0:00:05.28    \nframe=    0 fps=0.0 q=0.0 size=       0KiB time=N/A bitrate=N/A speed=N/A elapsed=0:00:05.80    \nframe=    0 fps=0.0 q=0.0 size=       0KiB time=N/A bitrate=N/A speed=N/A elapsed=0:00:06.34    \nframe=    0 fps=0.0 q=0.0 size=       0KiB time=N/A bitrate=N/A speed=N/A elapsed=0:00:06.88    \nframe=    0 fps=0.0 q=0.0 size=       0KiB time=N/A bitrate=N/A speed=N/A elapsed=0:00:07.40    \nframe=    0 fps=0.0 q=0.0 size=       0KiB time=N/A bitrate=N/A speed=N/A elapsed=0:00:07.93    \nframe=    0 fps=0.0 q=0.0 size=       0KiB time=N/A bitrate=N/A speed=N/A elapsed=0:00:08.46    \nframe=    0 fps=0.0 q=0.0 size=       0KiB time=N/A bitrate=N/A speed=N/A elapsed=0:00:08.99    \nframe=    0 fps=0.0 q=0.0 size=       0KiB time=N/A bitrate=N/A speed=N/A elapsed=0:00:09.52    \nframe=    0 fps=0.0 q=0.0 size=       0KiB time=N/A bitrate=N/A speed=N/A elapsed=0:00:10.06    \nframe=    0 fps=0.0 q=0.0 size=       0KiB time=N/A bitrate=N/A speed=N/A elapsed=0:00:10.59    \nframe=    0 fps=0.0 q=0.0 size=       0KiB time=N/A bitrate=N/A speed=N/A elapsed=0:00:11.19    \nframe=    0 fps=0.0 q=0.0 size=       0KiB time=N/A bitrate=N/A speed=N/A elapsed=0:00:11.75    \nframe=    0 fps=0.0 q=0.0 size=       0KiB time=N/A bitrate=N/A speed=N/A elapsed=0:00:12.32    \nframe=    1 fps=0.1 q=38.6 size=       0KiB time=-00:00:00.03 bitrate=N/A speed=N/A elapsed=0:00:12.84    \nframe=    1 fps=0.1 q=38.6 size=       0KiB time=-00:00:00.03 bitrate=N/A speed=N/A elapsed=0:00:13.35    \nframe=    1 fps=0.1 q=38.6 size=       0KiB time=-00:00:00.03 bitrate=N/A speed=N/A elapsed=0:00:13.87    \nframe=    1 fps=0.1 q=38.6 size=       0KiB time=-00:00:00.03 bitrate=N/A speed=N/A elapsed=0:00:14.38    \nframe=    2 fps=0.1 q=43.7 size=       0KiB time=00:00:00.00 bitrate=N/A speed=   0x elapsed=0:00:14.90    \nframe=    2 fps=0.1 q=43.7 size=       0KiB time=00:00:00.00 bitrate=N/A speed=   0x elapsed=0:00:15.42    \nframe=    3 fps=0.2 q=48.9 size=       0KiB time=00:00:00.03 bitrate=  10.6kbits/s speed=0.00209x elapsed=0:00:15.96    \nframe=    3 fps=0.2 q=48.9 size=       0KiB time=00:00:00.03 bitrate=  10.6kbits/s speed=0.00202x elapsed=0:00:16.50    \nframe=    3 fps=0.2 q=48.9 size=       0KiB time=00:00:00.03 bitrate=  10.6kbits/s speed=0.00195x elapsed=0:00:17.06    \nframe=    3 fps=0.2 q=48.9 size=       0KiB time=00:00:00.03 bitrate=  10.6kbits/s speed=0.00189x elapsed=0:00:17.60    \nframe=    3 fps=0.2 q=48.9 size=       0KiB time=00:00:00.03 bitrate=  10.6kbits/s speed=0.00183x elapsed=0:00:18.19    \nframe=    4 fps=0.2 q=39.1 size=       0KiB time=00:00:00.03 bitrate=  10.6kbits/s speed=0.00177x elapsed=0:00:18.79    \nframe=    4 fps=0.2 q=39.1 size=       0KiB time=00:00:00.06 bitrate=   5.3kbits/s speed=0.00345x elapsed=0:00:19.33    \nframe=    5 fps=0.3 q=43.4 size=       0KiB time=00:00:00.10 bitrate=   3.5kbits/s speed=0.00502x elapsed=0:00:19.92    \nframe=    5 fps=0.2 q=43.4 size=       0KiB time=00:00:00.10 bitrate=   3.5kbits/s speed=0.00487x elapsed=0:00:20.51    \nframe=    5 fps=0.2 q=43.4 size=       0KiB time=00:00:00.10 bitrate=   3.5kbits/s speed=0.00474x elapsed=0:00:21.07    \nframe=    5 fps=0.2 q=43.4 size=       0KiB time=00:00:00.10 bitrate=   3.5kbits/s speed=0.00462x elapsed=0:00:21.63    \nframe=    5 fps=0.2 q=43.4 size=       0KiB time=00:00:00.10 bitrate=   3.5kbits/s speed=0.00451x elapsed=0:00:22.18    \nframe=    5 fps=0.2 q=43.4 size=       0KiB time=00:00:00.10 bitrate=   3.5kbits/s speed=0.00439x elapsed=0:00:22.75    \nframe=    5 fps=0.2 q=43.4 size=       0KiB time=00:00:00.10 bitrate=   3.5kbits/s speed=0.00429x elapsed=0:00:23.32    \nframe=    5 fps=0.2 q=43.4 size=       0KiB time=00:00:00.10 bitrate=   3.5kbits/s speed=0.00419x elapsed=0:00:23.89    \nframe=    5 fps=0.2 q=43.4 size=       0KiB time=00:00:00.10 bitrate=   3.5kbits/s speed=0.00408x elapsed=0:00:24.49    \nframe=    5 fps=0.2 q=43.4 size=       0KiB time=00:00:00.10 bitrate=   3.5kbits/s speed=0.00399x elapsed=0:00:25.08    \nframe=    5 fps=0.2 q=43.4 size=       0KiB time=00:00:00.10 bitrate=   3.5kbits/s speed=0.0039x elapsed=0:00:25.65    \nframe=    5 fps=0.2 q=43.4 size=       0KiB time=00:00:00.10 bitrate=   3.5kbits/s speed=0.00382x elapsed=0:00:26.19    \nframe=    5 fps=0.2 q=43.4 size=       0KiB time=00:00:00.10 bitrate=   3.5kbits/s speed=0.00374x elapsed=0:00:26.71    \nframe=    6 fps=0.2 q=42.5 size=       0KiB time=00:00:00.13 bitrate=   2.6kbits/s speed=0.00489x elapsed=0:00:27.26    \nframe=    6 fps=0.2 q=42.5 size=       0KiB time=00:00:00.13 bitrate=   2.6kbits/s speed=0.00479x elapsed=0:00:27.86    \nframe=    6 fps=0.2 q=42.5 size=       0KiB time=00:00:00.13 bitrate=   2.6kbits/s speed=0.00469x elapsed=0:00:28.41    \nframe=    6 fps=0.2 q=42.5 size=       0KiB time=00:00:00.13 bitrate=   2.6kbits/s speed=0.0046x elapsed=0:00:29.00    \nframe=    6 fps=0.2 q=42.5 size=       0KiB time=00:00:00.13 bitrate=   2.6kbits/s speed=0.0045x elapsed=0:00:29.59    \nframe=    6 fps=0.2 q=42.5 size=       0KiB time=00:00:00.13 bitrate=   2.6kbits/s speed=0.00441x elapsed=0:00:30.22    \nframe=    6 fps=0.2 q=42.5 size=       0KiB time=00:00:00.13 bitrate=   2.6kbits/s speed=0.00433x elapsed=0:00:30.81    \nframe=    6 fps=0.2 q=42.5 size=       0KiB time=00:00:00.13 bitrate=   2.6kbits/s speed=0.00425x elapsed=0:00:31.37    \nframe=    6 fps=0.2 q=42.5 size=       0KiB time=00:00:00.13 bitrate=   2.6kbits/s speed=0.00417x elapsed=0:00:31.94    \nframe=    6 fps=0.2 q=42.5 size=       0KiB time=00:00:00.13 bitrate=   2.6kbits/s speed=0.00411x elapsed=0:00:32.46    \nframe=    7 fps=0.2 q=42.0 size=       0KiB time=00:00:00.16 bitrate=   2.1kbits/s speed=0.00505x elapsed=0:00:33.00    \nframe=    7 fps=0.2 q=42.0 size=       0KiB time=00:00:00.16 bitrate=   2.1kbits/s speed=0.00497x elapsed=0:00:33.53    \nframe=    8 fps=0.2 q=36.3 size=       0KiB time=00:00:00.20 bitrate=   1.8kbits/s speed=0.00587x elapsed=0:00:34.05    \nframe=    9 fps=0.3 q=38.0 size=       0KiB time=00:00:00.23 bitrate=   1.5kbits/s speed=0.00675x elapsed=0:00:34.57    \nframe=    9 fps=0.3 q=38.0 size=       0KiB time=00:00:00.23 bitrate=   1.5kbits/s speed=0.00664x elapsed=0:00:35.11    \nframe=    9 fps=0.3 q=38.0 size=       0KiB time=00:00:00.23 bitrate=   1.5kbits/s speed=0.00655x elapsed=0:00:35.64    \nframe=   10 fps=0.3 q=39.6 size=       0KiB time=00:00:00.26 bitrate=   1.3kbits/s speed=0.00738x elapsed=0:00:36.15    \nframe=   10 fps=0.3 q=39.6 size=       0KiB time=00:00:00.26 bitrate=   1.3kbits/s speed=0.00727x elapsed=0:00:36.66    \nframe=   10 fps=0.3 q=39.6 size=       0KiB time=00:00:00.26 bitrate=   1.3kbits/s speed=0.00717x elapsed=0:00:37.21    \nframe=   10 fps=0.3 q=39.6 size=       0KiB time=00:00:00.26 bitrate=   1.3kbits/s speed=0.00707x elapsed=0:00:37.74    \nframe=   10 fps=0.3 q=39.6 size=       0KiB time=00:00:00.26 bitrate=   1.3kbits/s speed=0.00696x elapsed=0:00:38.28    \nframe=   11 fps=0.3 q=41.6 size=       0KiB time=00:00:00.30 bitrate=   1.2kbits/s speed=0.00773x elapsed=0:00:38.82    \nframe=   11 fps=0.3 q=41.6 size=       0KiB time=00:00:00.30 bitrate=   1.2kbits/s speed=0.00763x elapsed=0:00:39.34    \nframe=   12 fps=0.3 q=34.9 size=       0KiB time=00:00:00.33 bitrate=   1.1kbits/s speed=0.00836x elapsed=0:00:39.85    \nframe=   13 fps=0.3 q=40.0 size=       0KiB time=00:00:00.36 bitrate=   1.0kbits/s speed=0.00908x elapsed=0:00:40.38    \nframe=   13 fps=0.3 q=40.0 size=       0KiB time=00:00:00.36 bitrate=   1.0kbits/s speed=0.00896x elapsed=0:00:40.90    \nframe=   13 fps=0.3 q=40.0 size=       0KiB time=00:00:00.36 bitrate=   1.0kbits/s speed=0.00885x elapsed=0:00:41.45    \nframe=   14 fps=0.3 q=41.6 size=       0KiB time=00:00:00.40 bitrate=   0.9kbits/s speed=0.00953x elapsed=0:00:41.98    \nframe=   14 fps=0.3 q=41.6 size=       0KiB time=00:00:00.40 bitrate=   0.9kbits/s speed=0.0094x elapsed=0:00:42.53    \nframe=   14 fps=0.3 q=41.6 size=       0KiB time=00:00:00.40 bitrate=   0.9kbits/s speed=0.00929x elapsed=0:00:43.07    \nframe=   14 fps=0.3 q=41.6 size=       0KiB time=00:00:00.40 bitrate=   0.9kbits/s speed=0.00918x elapsed=0:00:43.59    \nframe=   15 fps=0.3 q=41.5 size=       0KiB time=00:00:00.43 bitrate=   0.8kbits/s speed=0.00982x elapsed=0:00:44.10    \nframe=   15 fps=0.3 q=41.5 size=       0KiB time=00:00:00.43 bitrate=   0.8kbits/s speed=0.00971x elapsed=0:00:44.64    \nframe=   15 fps=0.3 q=41.5 size=       0KiB time=00:00:00.43 bitrate=   0.8kbits/s speed=0.00959x elapsed=0:00:45.18    \nframe=   15 fps=0.3 q=41.5 size=       0KiB time=00:00:00.43 bitrate=   0.8kbits/s speed=0.00948x elapsed=0:00:45.71    \nframe=   16 fps=0.3 q=34.6 size=       0KiB time=00:00:00.46 bitrate=   0.8kbits/s speed=0.0101x elapsed=0:00:46.24    \nframe=   17 fps=0.4 q=39.1 size=       0KiB time=00:00:00.50 bitrate=   0.7kbits/s speed=0.0107x elapsed=0:00:46.77    \nframe=   17 fps=0.4 q=39.1 size=       0KiB time=00:00:00.50 bitrate=   0.7kbits/s speed=0.0106x elapsed=0:00:47.30    \nframe=   17 fps=0.4 q=39.1 size=       0KiB time=00:00:00.50 bitrate=   0.7kbits/s speed=0.0105x elapsed=0:00:47.84    \nframe=   17 fps=0.4 q=39.1 size=       0KiB time=00:00:00.50 bitrate=   0.7kbits/s speed=0.0103x elapsed=0:00:48.36    \nframe=   17 fps=0.3 q=39.1 size=       0KiB time=00:00:00.50 bitrate=   0.7kbits/s speed=0.0102x elapsed=0:00:48.90    \nframe=   18 fps=0.4 q=41.4 size=       0KiB time=00:00:00.53 bitrate=   0.7kbits/s speed=0.0108x elapsed=0:00:49.43    \nframe=   19 fps=0.4 q=40.6 size=       0KiB time=00:00:00.56 bitrate=   0.6kbits/s speed=0.0113x elapsed=0:00:49.95    \nframe=   19 fps=0.4 q=40.6 size=       0KiB time=00:00:00.56 bitrate=   0.6kbits/s speed=0.0112x elapsed=0:00:50.49    \nframe=   20 fps=0.4 q=34.2 size=       0KiB time=00:00:00.60 bitrate=   0.6kbits/s speed=0.0118x elapsed=0:00:51.00    \nframe=   20 fps=0.4 q=34.2 size=       0KiB time=00:00:00.60 bitrate=   0.6kbits/s speed=0.0116x elapsed=0:00:51.52    \nframe=   21 fps=0.4 q=39.6 size=       0KiB time=00:00:00.63 bitrate=   0.6kbits/s speed=0.0122x elapsed=0:00:52.04    \nframe=   21 fps=0.4 q=39.6 size=       0KiB time=00:00:00.63 bitrate=   0.6kbits/s speed=0.012x elapsed=0:00:52.57    \nframe=   21 fps=0.4 q=39.6 size=       0KiB time=00:00:00.63 bitrate=   0.6kbits/s speed=0.0119x elapsed=0:00:53.09    \nframe=   21 fps=0.4 q=39.6 size=       0KiB time=00:00:00.63 bitrate=   0.6kbits/s speed=0.0118x elapsed=0:00:53.67    \nframe=   22 fps=0.4 q=40.5 size=       0KiB time=00:00:00.66 bitrate=   0.5kbits/s speed=0.0123x elapsed=0:00:54.21    \nframe=   23 fps=0.4 q=34.1 size=       0KiB time=00:00:00.70 bitrate=   0.5kbits/s speed=0.0128x elapsed=0:00:54.73    \nframe=   24 fps=0.4 q=38.3 size=       0KiB time=00:00:00.73 bitrate=   0.5kbits/s speed=0.0133x elapsed=0:00:55.25    \nframe=   24 fps=0.4 q=38.3 size=       0KiB time=00:00:00.73 bitrate=   0.5kbits/s speed=0.0131x elapsed=0:00:55.78    \nframe=   24 fps=0.4 q=38.3 size=       0KiB time=00:00:00.73 bitrate=   0.5kbits/s speed=0.013x elapsed=0:00:56.30    \nframe=   24 fps=0.4 q=38.3 size=       0KiB time=00:00:00.73 bitrate=   0.5kbits/s speed=0.0129x elapsed=0:00:56.83    \nframe=   25 fps=0.4 q=39.6 size=       0KiB time=00:00:00.76 bitrate=   0.5kbits/s speed=0.0134x elapsed=0:00:57.35    \nframe=   25 fps=0.4 q=39.6 size=       0KiB time=00:00:00.76 bitrate=   0.5kbits/s speed=0.0132x elapsed=0:00:57.90    \nframe=   25 fps=0.4 q=39.6 size=       0KiB time=00:00:00.76 bitrate=   0.5kbits/s speed=0.0131x elapsed=0:00:58.43    \nframe=   25 fps=0.4 q=39.6 size=       0KiB time=00:00:00.76 bitrate=   0.5kbits/s speed=0.013x elapsed=0:00:58.97    \nframe=   26 fps=0.4 q=39.5 size=       0KiB time=00:00:00.80 bitrate=   0.4kbits/s speed=0.0134x elapsed=0:00:59.48    \nframe=   26 fps=0.4 q=39.5 size=       0KiB time=00:00:00.80 bitrate=   0.4kbits/s speed=0.0133x elapsed=0:00:59.99    \nframe=   26 fps=0.4 q=39.5 size=       0KiB time=00:00:00.80 bitrate=   0.4kbits/s speed=0.0132x elapsed=0:01:00.54    \nframe=   27 fps=0.4 q=33.4 size=       0KiB time=00:00:00.83 bitrate=   0.4kbits/s speed=0.0136x elapsed=0:01:01.06    \nframe=   28 fps=0.5 q=37.6 size=       0KiB time=00:00:00.86 bitrate=   0.4kbits/s speed=0.0141x elapsed=0:01:01.59    \nframe=   28 fps=0.5 q=37.6 size=       0KiB time=00:00:00.86 bitrate=   0.4kbits/s speed=0.0139x elapsed=0:01:02.14    \nframe=   28 fps=0.4 q=37.6 size=       0KiB time=00:00:00.86 bitrate=   0.4kbits/s speed=0.0138x elapsed=0:01:02.71    \nframe=   28 fps=0.4 q=37.6 size=       0KiB time=00:00:00.86 bitrate=   0.4kbits/s speed=0.0137x elapsed=0:01:03.22    \nframe=   28 fps=0.4 q=37.6 size=       0KiB time=00:00:00.86 bitrate=   0.4kbits/s speed=0.0136x elapsed=0:01:03.76    \nframe=   29 fps=0.5 q=38.6 size=       0KiB time=00:00:00.90 bitrate=   0.4kbits/s speed=0.014x elapsed=0:01:04.32    \nframe=   30 fps=0.5 q=38.6 size=       0KiB time=00:00:00.93 bitrate=   0.4kbits/s speed=0.0144x elapsed=0:01:04.83    \nframe=   30 fps=0.5 q=38.6 size=       0KiB time=00:00:00.93 bitrate=   0.4kbits/s speed=0.0143x elapsed=0:01:05.38    \nframe=   30 fps=0.5 q=38.6 size=       0KiB time=00:00:00.93 bitrate=   0.4kbits/s speed=0.0142x elapsed=0:01:05.93    \nframe=   31 fps=0.5 q=33.1 size=       0KiB time=00:00:00.96 bitrate=   0.4kbits/s speed=0.0145x elapsed=0:01:06.47    \nframe=   31 fps=0.5 q=33.1 size=       0KiB time=00:00:00.96 bitrate=   0.4kbits/s speed=0.0144x elapsed=0:01:07.01    \nframe=   31 fps=0.5 q=33.1 size=       0KiB time=00:00:00.96 bitrate=   0.4kbits/s speed=0.0143x elapsed=0:01:07.56    \nframe=   32 fps=0.5 q=37.8 size=       0KiB time=00:00:01.00 bitrate=   0.4kbits/s speed=0.0147x elapsed=0:01:08.08    \nframe=   32 fps=0.5 q=37.8 size=       0KiB time=00:00:01.00 bitrate=   0.4kbits/s speed=0.0146x elapsed=0:01:08.62    \nframe=   32 fps=0.5 q=37.8 size=       0KiB time=00:00:01.00 bitrate=   0.4kbits/s speed=0.0145x elapsed=0:01:09.15    \nframe=   33 fps=0.5 q=39.6 size=       0KiB time=00:00:01.03 bitrate=   0.3kbits/s speed=0.0148x elapsed=0:01:09.67    \nframe=   33 fps=0.5 q=39.6 size=       0KiB time=00:00:01.03 bitrate=   0.3kbits/s speed=0.0147x elapsed=0:01:10.23    \nframe=   33 fps=0.5 q=39.6 size=       0KiB time=00:00:01.03 bitrate=   0.3kbits/s speed=0.0146x elapsed=0:01:10.75    \nframe=   34 fps=0.5 q=38.6 size=       0KiB time=00:00:01.06 bitrate=   0.3kbits/s speed=0.015x elapsed=0:01:11.28    \nframe=   35 fps=0.5 q=32.6 size=       0KiB time=00:00:01.10 bitrate=   0.3kbits/s speed=0.0153x elapsed=0:01:11.79    \nframe=   35 fps=0.5 q=32.6 size=       0KiB time=00:00:01.10 bitrate=   0.3kbits/s speed=0.0152x elapsed=0:01:12.31    \nframe=   36 fps=0.5 q=37.2 size=       0KiB time=00:00:01.13 bitrate=   0.3kbits/s speed=0.0156x elapsed=0:01:12.82    \nframe=   36 fps=0.5 q=37.2 size=       0KiB time=00:00:01.13 bitrate=   0.3kbits/s speed=0.0154x elapsed=0:01:13.35    \nframe=   36 fps=0.5 q=37.2 size=       0KiB time=00:00:01.13 bitrate=   0.3kbits/s speed=0.0153x elapsed=0:01:13.88    \nframe=   36 fps=0.5 q=37.2 size=       0KiB time=00:00:01.13 bitrate=   0.3kbits/s speed=0.0152x elapsed=0:01:14.46    \nframe=   36 fps=0.5 q=37.2 size=       0KiB time=00:00:01.13 bitrate=   0.3kbits/s speed=0.0151x elapsed=0:01:15.03    \nframe=   37 fps=0.5 q=38.6 size=       0KiB time=00:00:01.16 bitrate=   0.3kbits/s speed=0.0154x elapsed=0:01:15.59    \nframe=   37 fps=0.5 q=38.6 size=       0KiB time=00:00:01.16 bitrate=   0.3kbits/s speed=0.0153x elapsed=0:01:16.13    \nframe=   37 fps=0.5 q=38.6 size=       0KiB time=00:00:01.16 bitrate=   0.3kbits/s speed=0.0152x elapsed=0:01:16.67    \nframe=   38 fps=0.5 q=32.9 size=       0KiB time=00:00:01.20 bitrate=   0.3kbits/s speed=0.0155x elapsed=0:01:17.18    \nframe=   38 fps=0.5 q=32.9 size=       0KiB time=00:00:01.20 bitrate=   0.3kbits/s speed=0.0154x elapsed=0:01:17.72    \nframe=   38 fps=0.5 q=32.9 size=       0KiB time=00:00:01.20 bitrate=   0.3kbits/s speed=0.0153x elapsed=0:01:18.25    \nframe=   39 fps=0.5 q=37.3 size=       0KiB time=00:00:01.23 bitrate=   0.3kbits/s speed=0.0157x elapsed=0:01:18.77    \nframe=   39 fps=0.5 q=37.3 size=       0KiB time=00:00:01.23 bitrate=   0.3kbits/s speed=0.0156x elapsed=0:01:19.29    \nframe=   40 fps=0.5 q=39.4 size=       0KiB time=00:00:01.26 bitrate=   0.3kbits/s speed=0.0159x elapsed=0:01:19.81    \nframe=   41 fps=0.5 q=39.9 size=       0KiB time=00:00:01.30 bitrate=   0.3kbits/s speed=0.0162x elapsed=0:01:20.32    \nframe=   41 fps=0.5 q=39.9 size=       0KiB time=00:00:01.30 bitrate=   0.3kbits/s speed=0.0161x elapsed=0:01:20.84    \nframe=   42 fps=0.5 q=32.9 size=       0KiB time=00:00:01.33 bitrate=   0.3kbits/s speed=0.0164x elapsed=0:01:21.36    \nframe=   44 fps=0.5 q=39.5 size=       0KiB time=00:00:01.40 bitrate=   0.3kbits/s speed=0.0171x elapsed=0:01:21.87    \nframe=   44 fps=0.5 q=39.5 size=       0KiB time=00:00:01.40 bitrate=   0.3kbits/s speed=0.017x elapsed=0:01:22.39    \nframe=   45 fps=0.5 q=38.2 size=       0KiB time=00:00:01.43 bitrate=   0.2kbits/s speed=0.0173x elapsed=0:01:22.91    \nframe=   46 fps=0.6 q=38.8 size=     256KiB time=00:00:01.46 bitrate=1430.1kbits/s speed=0.0176x elapsed=0:01:23.41    \nframe=   46 fps=0.5 q=38.8 size=     256KiB time=00:00:01.46 bitrate=1430.1kbits/s speed=0.0175x elapsed=0:01:23.93    \nframe=   47 fps=0.6 q=32.5 size=     256KiB time=00:00:01.50 bitrate=1398.3kbits/s speed=0.0178x elapsed=0:01:24.45    \nframe=   47 fps=0.6 q=32.5 size=     256KiB time=00:00:01.50 bitrate=1398.3kbits/s speed=0.0177x elapsed=0:01:24.96    \nframe=   49 fps=0.6 q=39.5 size=     256KiB time=00:00:01.56 bitrate=1338.8kbits/s speed=0.0183x elapsed=0:01:25.48    \nframe=   50 fps=0.6 q=32.4 size=     256KiB time=00:00:01.60 bitrate=1310.9kbits/s speed=0.0186x elapsed=0:01:26.00    \nframe=   51 fps=0.6 q=36.8 size=     256KiB time=00:00:01.63 bitrate=1284.2kbits/s speed=0.0189x elapsed=0:01:26.50    \nframe=   51 fps=0.6 q=36.8 size=     256KiB time=00:00:01.63 bitrate=1284.2kbits/s speed=0.0188x elapsed=0:01:27.02    \nframe=   52 fps=0.6 q=38.3 size=     256KiB time=00:00:01.66 bitrate=1258.5kbits/s speed=0.019x elapsed=0:01:27.54    \nframe=   52 fps=0.6 q=38.3 size=     256KiB time=00:00:01.66 bitrate=1258.5kbits/s speed=0.0189x elapsed=0:01:28.06    \nframe=   53 fps=0.6 q=38.7 size=     256KiB time=00:00:01.70 bitrate=1233.8kbits/s speed=0.0192x elapsed=0:01:28.57    \nframe=   54 fps=0.6 q=32.5 size=     256KiB time=00:00:01.73 bitrate=1210.1kbits/s speed=0.0195x elapsed=0:01:29.09    \nframe=   54 fps=0.6 q=32.5 size=     256KiB time=00:00:01.73 bitrate=1210.1kbits/s speed=0.0193x elapsed=0:01:29.61    \nframe=   55 fps=0.6 q=35.8 size=     256KiB time=00:00:01.76 bitrate=1187.3kbits/s speed=0.0196x elapsed=0:01:30.12    \nframe=   55 fps=0.6 q=35.8 size=     256KiB time=00:00:01.76 bitrate=1187.3kbits/s speed=0.0195x elapsed=0:01:30.63    \nframe=   56 fps=0.6 q=38.4 size=     256KiB time=00:00:01.80 bitrate=1165.3kbits/s speed=0.0197x elapsed=0:01:31.15    \nframe=   56 fps=0.6 q=38.4 size=     256KiB time=00:00:01.80 bitrate=1165.3kbits/s speed=0.0196x elapsed=0:01:31.67    \nframe=   56 fps=0.6 q=38.4 size=     256KiB time=00:00:01.80 bitrate=1165.3kbits/s speed=0.0195x elapsed=0:01:32.21    \nframe=   57 fps=0.6 q=38.4 size=     256KiB time=00:00:01.83 bitrate=1144.1kbits/s speed=0.0198x elapsed=0:01:32.73    \nframe=   57 fps=0.6 q=38.4 size=     256KiB time=00:00:01.83 bitrate=1144.1kbits/s speed=0.0197x elapsed=0:01:33.24    \nframe=   57 fps=0.6 q=38.4 size=     256KiB time=00:00:01.83 bitrate=1144.1kbits/s speed=0.0196x elapsed=0:01:33.77    \nframe=   57 fps=0.6 q=38.4 size=     256KiB time=00:00:01.83 bitrate=1144.1kbits/s speed=0.0194x elapsed=0:01:34.29    \nframe=   57 fps=0.6 q=38.4 size=     256KiB time=00:00:01.83 bitrate=1144.1kbits/s speed=0.0193x elapsed=0:01:34.83    \nframe=   57 fps=0.6 q=38.4 size=     256KiB time=00:00:01.83 bitrate=1144.1kbits/s speed=0.0192x elapsed=0:01:35.36    \nframe=   57 fps=0.6 q=38.4 size=     256KiB time=00:00:01.83 bitrate=1144.1kbits/s speed=0.0191x elapsed=0:01:35.90    \nframe=   57 fps=0.6 q=38.4 size=     256KiB time=00:00:01.83 bitrate=1144.1kbits/s speed=0.019x elapsed=0:01:36.42    \nframe=   57 fps=0.6 q=38.4 size=     256KiB time=00:00:01.83 bitrate=1144.1kbits/s speed=0.0189x elapsed=0:01:36.93    \nframe=   58 fps=0.6 q=38.6 size=     256KiB time=00:00:01.86 bitrate=1123.7kbits/s speed=0.0192x elapsed=0:01:37.47    \nframe=   58 fps=0.6 q=38.6 size=     256KiB time=00:00:01.86 bitrate=1123.7kbits/s speed=0.019x elapsed=0:01:38.00    \nframe=   58 fps=0.6 q=38.6 size=     256KiB time=00:00:01.86 bitrate=1123.7kbits/s speed=0.0189x elapsed=0:01:38.51    \nframe=   59 fps=0.6 q=32.4 size=     256KiB time=00:00:01.90 bitrate=1103.9kbits/s speed=0.0192x elapsed=0:01:39.06    \nframe=   61 fps=0.6 q=39.6 size=     256KiB time=00:00:01.96 bitrate=1066.5kbits/s speed=0.0197x elapsed=0:01:39.59    \nframe=   61 fps=0.6 q=39.6 size=     256KiB time=00:00:01.96 bitrate=1066.5kbits/s speed=0.0196x elapsed=0:01:40.12    \nframe=   61 fps=0.6 q=39.6 size=     256KiB time=00:00:01.96 bitrate=1066.5kbits/s speed=0.0195x elapsed=0:01:40.64    \nframe=   62 fps=0.6 q=38.7 size=     256KiB time=00:00:02.00 bitrate=1048.8kbits/s speed=0.0198x elapsed=0:01:41.16    \nframe=   62 fps=0.6 q=38.7 size=     256KiB time=00:00:02.00 bitrate=1048.8kbits/s speed=0.0197x elapsed=0:01:41.68    \nframe=   63 fps=0.6 q=32.4 size=     256KiB time=00:00:02.03 bitrate=1031.6kbits/s speed=0.0199x elapsed=0:01:42.22    \nframe=   63 fps=0.6 q=32.4 size=     256KiB time=00:00:02.03 bitrate=1031.6kbits/s speed=0.0198x elapsed=0:01:42.75    \nframe=   64 fps=0.6 q=37.3 size=     256KiB time=00:00:02.06 bitrate=1014.9kbits/s speed=0.02x elapsed=0:01:43.28    \nframe=   65 fps=0.6 q=38.9 size=     256KiB time=00:00:02.10 bitrate= 998.8kbits/s speed=0.0202x elapsed=0:01:43.79    \nframe=   65 fps=0.6 q=38.9 size=     256KiB time=00:00:02.10 bitrate= 998.8kbits/s speed=0.0201x elapsed=0:01:44.32    \nframe=   65 fps=0.6 q=38.9 size=     256KiB time=00:00:02.10 bitrate= 998.8kbits/s speed=0.02x elapsed=0:01:44.84    \nframe=   66 fps=0.6 q=38.8 size=     256KiB time=00:00:02.13 bitrate= 983.2kbits/s speed=0.0202x elapsed=0:01:45.38    \nframe=   66 fps=0.6 q=38.8 size=     256KiB time=00:00:02.13 bitrate= 983.2kbits/s speed=0.0201x elapsed=0:01:45.93    \nframe=   66 fps=0.6 q=38.8 size=     256KiB time=00:00:02.13 bitrate= 983.2kbits/s speed=0.02x elapsed=0:01:46.45    \nframe=   67 fps=0.6 q=32.2 size=     256KiB time=00:00:02.16 bitrate= 968.1kbits/s speed=0.0203x elapsed=0:01:46.98    \nframe=   67 fps=0.6 q=32.2 size=     256KiB time=00:00:02.16 bitrate= 968.1kbits/s speed=0.0202x elapsed=0:01:47.49    \nframe=   67 fps=0.6 q=32.2 size=     256KiB time=00:00:02.16 bitrate= 968.1kbits/s speed=0.0201x elapsed=0:01:48.06    \nframe=   67 fps=0.6 q=32.2 size=     256KiB time=00:00:02.16 bitrate= 968.1kbits/s speed=0.0199x elapsed=0:01:48.60    \nframe=   68 fps=0.6 q=37.2 size=     256KiB time=00:00:02.20 bitrate= 953.4kbits/s speed=0.0202x elapsed=0:01:49.14    \nframe=   69 fps=0.6 q=38.9 size=     256KiB time=00:00:02.23 bitrate= 939.2kbits/s speed=0.0204x elapsed=0:01:49.66    \nframe=   69 fps=0.6 q=38.9 size=     256KiB time=00:00:02.23 bitrate= 939.2kbits/s speed=0.0203x elapsed=0:01:50.19    \nframe=   70 fps=0.6 q=37.8 size=     256KiB time=00:00:02.26 bitrate= 925.4kbits/s speed=0.0205x elapsed=0:01:50.73    \nframe=   70 fps=0.6 q=37.8 size=     256KiB time=00:00:02.26 bitrate= 925.4kbits/s speed=0.0204x elapsed=0:01:51.26    \nframe=   70 fps=0.6 q=37.8 size=     256KiB time=00:00:02.26 bitrate= 925.4kbits/s speed=0.0203x elapsed=0:01:51.83    \nframe=   71 fps=0.6 q=31.6 size=     256KiB time=00:00:02.30 bitrate= 912.0kbits/s speed=0.0205x elapsed=0:01:52.38    \nframe=   71 fps=0.6 q=31.6 size=     256KiB time=00:00:02.30 bitrate= 912.0kbits/s speed=0.0204x elapsed=0:01:52.89    \nframe=   71 fps=0.6 q=31.6 size=     256KiB time=00:00:02.30 bitrate= 912.0kbits/s speed=0.0203x elapsed=0:01:53.41    \nframe=   72 fps=0.6 q=36.3 size=     256KiB time=00:00:02.33 bitrate= 898.9kbits/s speed=0.0205x elapsed=0:01:53.93    \nframe=   73 fps=0.6 q=38.7 size=     256KiB time=00:00:02.36 bitrate= 886.3kbits/s speed=0.0207x elapsed=0:01:54.47    \nframe=   73 fps=0.6 q=38.7 size=     256KiB time=00:00:02.36 bitrate= 886.3kbits/s speed=0.0206x elapsed=0:01:55.05    \nframe=   73 fps=0.6 q=38.7 size=     256KiB time=00:00:02.36 bitrate= 886.3kbits/s speed=0.0205x elapsed=0:01:55.59    \nframe=   74 fps=0.6 q=38.8 size=     256KiB time=00:00:02.40 bitrate= 874.0kbits/s speed=0.0207x elapsed=0:01:56.11    \nframe=   74 fps=0.6 q=38.8 size=     256KiB time=00:00:02.40 bitrate= 874.0kbits/s speed=0.0206x elapsed=0:01:56.65    \nframe=   74 fps=0.6 q=38.8 size=     256KiB time=00:00:02.40 bitrate= 874.0kbits/s speed=0.0205x elapsed=0:01:57.20    \nframe=   75 fps=0.6 q=31.8 size=     256KiB time=00:00:02.43 bitrate= 862.0kbits/s speed=0.0207x elapsed=0:01:57.71    \nframe=   75 fps=0.6 q=31.8 size=     256KiB time=00:00:02.43 bitrate= 862.0kbits/s speed=0.0206x elapsed=0:01:58.24    \nframe=   75 fps=0.6 q=31.8 size=     256KiB time=00:00:02.43 bitrate= 862.0kbits/s speed=0.0205x elapsed=0:01:58.76    \nframe=   76 fps=0.6 q=36.0 size=     256KiB time=00:00:02.46 bitrate= 850.3kbits/s speed=0.0207x elapsed=0:01:59.28    \nframe=   77 fps=0.6 q=38.9 size=     256KiB time=00:00:02.50 bitrate= 839.0kbits/s speed=0.0209x elapsed=0:01:59.79    \nframe=   77 fps=0.6 q=38.9 size=     256KiB time=00:00:02.50 bitrate= 839.0kbits/s speed=0.0208x elapsed=0:02:00.30    \nframe=   77 fps=0.6 q=38.9 size=     256KiB time=00:00:02.50 bitrate= 839.0kbits/s speed=0.0207x elapsed=0:02:00.82    \nframe=   77 fps=0.6 q=38.9 size=     256KiB time=00:00:02.50 bitrate= 839.0kbits/s speed=0.0206x elapsed=0:02:01.35    \nframe=   79 fps=0.6 q=31.9 size=     256KiB time=00:00:02.56 bitrate= 817.2kbits/s speed=0.0211x elapsed=0:02:01.87    \nframe=   79 fps=0.6 q=31.9 size=     256KiB time=00:00:02.56 bitrate= 817.2kbits/s speed=0.021x elapsed=0:02:02.40    \nframe=   79 fps=0.6 q=31.9 size=     256KiB time=00:00:02.56 bitrate= 817.2kbits/s speed=0.0209x elapsed=0:02:02.91    \nframe=   80 fps=0.6 q=36.4 size=     256KiB time=00:00:02.60 bitrate= 806.7kbits/s speed=0.0211x elapsed=0:02:03.44    \nframe=   81 fps=0.7 q=39.6 size=     256KiB time=00:00:02.63 bitrate= 796.5kbits/s speed=0.0212x elapsed=0:02:03.95    \nframe=   82 fps=0.7 q=38.7 size=     256KiB time=00:00:02.66 bitrate= 786.6kbits/s speed=0.0214x elapsed=0:02:04.47    \nframe=   83 fps=0.7 q=32.1 size=     256KiB time=00:00:02.70 bitrate= 776.9kbits/s speed=0.0216x elapsed=0:02:05.00    \nframe=   83 fps=0.7 q=32.1 size=     256KiB time=00:00:02.70 bitrate= 776.9kbits/s speed=0.0215x elapsed=0:02:05.52    \nframe=   84 fps=0.7 q=35.6 size=     256KiB time=00:00:02.73 bitrate= 767.4kbits/s speed=0.0217x elapsed=0:02:06.04    \nframe=   84 fps=0.7 q=35.6 size=     256KiB time=00:00:02.73 bitrate= 767.4kbits/s speed=0.0216x elapsed=0:02:06.62    \nframe=   84 fps=0.7 q=35.6 size=     256KiB time=00:00:02.73 bitrate= 767.4kbits/s speed=0.0215x elapsed=0:02:07.15    \nframe=   85 fps=0.7 q=38.9 size=     256KiB time=00:00:02.76 bitrate= 758.1kbits/s speed=0.0217x elapsed=0:02:07.71    \nframe=   85 fps=0.7 q=38.9 size=     256KiB time=00:00:02.76 bitrate= 758.1kbits/s speed=0.0216x elapsed=0:02:08.28    \nframe=   85 fps=0.7 q=38.9 size=     256KiB time=00:00:02.76 bitrate= 758.1kbits/s speed=0.0215x elapsed=0:02:08.79    \nframe=   86 fps=0.7 q=38.7 size=     256KiB time=00:00:02.80 bitrate= 749.1kbits/s speed=0.0217x elapsed=0:02:09.31    \nframe=   86 fps=0.7 q=38.7 size=     256KiB time=00:00:02.80 bitrate= 749.1kbits/s speed=0.0216x elapsed=0:02:09.83    \nframe=   87 fps=0.7 q=31.7 size=     256KiB time=00:00:02.83 bitrate= 740.3kbits/s speed=0.0217x elapsed=0:02:10.36    \nframe=   88 fps=0.7 q=39.8 size=     512KiB time=00:00:02.86 bitrate=1463.3kbits/s speed=0.0219x elapsed=0:02:10.87    \nframe=   89 fps=0.7 q=31.9 size=     512KiB time=00:00:02.90 bitrate=1446.4kbits/s speed=0.0221x elapsed=0:02:11.38    \nframe=   89 fps=0.7 q=31.9 size=     512KiB time=00:00:02.90 bitrate=1446.4kbits/s speed=0.022x elapsed=0:02:11.91    \nframe=   91 fps=0.7 q=39.8 size=     512KiB time=00:00:02.96 bitrate=1413.9kbits/s speed=0.0224x elapsed=0:02:12.43    \nframe=   91 fps=0.7 q=39.8 size=     512KiB time=00:00:02.96 bitrate=1413.9kbits/s speed=0.0223x elapsed=0:02:12.95    \nframe=   93 fps=0.7 q=39.7 size=     512KiB time=00:00:03.03 bitrate=1382.9kbits/s speed=0.0227x elapsed=0:02:13.47    \nframe=   93 fps=0.7 q=39.7 size=     512KiB time=00:00:03.03 bitrate=1382.9kbits/s speed=0.0226x elapsed=0:02:13.97    \nframe=   95 fps=0.7 q=33.7 size=     512KiB time=00:00:03.10 bitrate=1353.1kbits/s speed=0.023x elapsed=0:02:14.50    \nframe=   95 fps=0.7 q=33.7 size=     512KiB time=00:00:03.10 bitrate=1353.1kbits/s speed=0.023x elapsed=0:02:15.02    \nframe=   96 fps=0.7 q=39.8 size=     512KiB time=00:00:03.13 bitrate=1338.7kbits/s speed=0.0231x elapsed=0:02:15.55    \nframe=   97 fps=0.7 q=39.7 size=     512KiB time=00:00:03.16 bitrate=1324.6kbits/s speed=0.0233x elapsed=0:02:16.09    \nframe=   97 fps=0.7 q=39.7 size=     512KiB time=00:00:03.16 bitrate=1324.6kbits/s speed=0.0232x elapsed=0:02:16.60    \nframe=   97 fps=0.7 q=39.7 size=     512KiB time=00:00:03.16 bitrate=1324.6kbits/s speed=0.0231x elapsed=0:02:17.14    \nframe=   98 fps=0.7 q=40.8 size=     512KiB time=00:00:03.20 bitrate=1310.8kbits/s speed=0.0232x elapsed=0:02:17.66    \nframe=   98 fps=0.7 q=40.8 size=     512KiB time=00:00:03.20 bitrate=1310.8kbits/s speed=0.0232x elapsed=0:02:18.18    \nframe=   98 fps=0.7 q=40.8 size=     512KiB time=00:00:03.20 bitrate=1310.8kbits/s speed=0.0231x elapsed=0:02:18.69    \nframe=   98 fps=0.7 q=40.8 size=     512KiB time=00:00:03.20 bitrate=1310.8kbits/s speed=0.023x elapsed=0:02:19.23    \nframe=   98 fps=0.7 q=40.8 size=     512KiB time=00:00:03.20 bitrate=1310.8kbits/s speed=0.0229x elapsed=0:02:19.75    \nframe=   98 fps=0.7 q=40.8 size=     512KiB time=00:00:03.20 bitrate=1310.8kbits/s speed=0.0228x elapsed=0:02:20.26    \nframe=   98 fps=0.7 q=40.8 size=     512KiB time=00:00:03.20 bitrate=1310.8kbits/s speed=0.0227x elapsed=0:02:20.79    \nframe=   98 fps=0.7 q=40.8 size=     512KiB time=00:00:03.20 bitrate=1310.8kbits/s speed=0.0226x elapsed=0:02:21.33    \nframe=   99 fps=0.7 q=32.6 size=     512KiB time=00:00:03.23 bitrate=1297.3kbits/s speed=0.0228x elapsed=0:02:21.84    \nframe=  100 fps=0.7 q=38.0 size=     512KiB time=00:00:03.26 bitrate=1284.1kbits/s speed=0.0229x elapsed=0:02:22.36    \nframe=  101 fps=0.7 q=40.6 size=     512KiB time=00:00:03.26 bitrate=1284.1kbits/s speed=0.0229x elapsed=0:02:22.89    \nframe=  101 fps=0.7 q=40.6 size=     512KiB time=00:00:03.30 bitrate=1271.1kbits/s speed=0.023x elapsed=0:02:23.42    \nframe=  101 fps=0.7 q=40.6 size=     512KiB time=00:00:03.30 bitrate=1271.1kbits/s speed=0.0229x elapsed=0:02:23.95    \nframe=  101 fps=0.7 q=40.6 size=     512KiB time=00:00:03.30 bitrate=1271.1kbits/s speed=0.0228x elapsed=0:02:24.46    \nframe=  101 fps=0.7 q=40.6 size=     512KiB time=00:00:03.30 bitrate=1271.1kbits/s speed=0.0228x elapsed=0:02:24.98    \nframe=  101 fps=0.7 q=40.6 size=     512KiB time=00:00:03.30 bitrate=1271.1kbits/s speed=0.0227x elapsed=0:02:25.49    \nframe=  102 fps=0.7 q=40.9 size=     512KiB time=00:00:03.33 bitrate=1258.4kbits/s speed=0.0228x elapsed=0:02:26.02    \nframe=  102 fps=0.7 q=40.9 size=     512KiB time=00:00:03.33 bitrate=1258.4kbits/s speed=0.0227x elapsed=0:02:26.54    \nframe=  102 fps=0.7 q=40.9 size=     512KiB time=00:00:03.33 bitrate=1258.4kbits/s speed=0.0227x elapsed=0:02:27.06    \nframe=  103 fps=0.7 q=32.7 size=     512KiB time=00:00:03.36 bitrate=1245.9kbits/s speed=0.0228x elapsed=0:02:27.58    \nframe=  103 fps=0.7 q=32.7 size=     512KiB time=00:00:03.36 bitrate=1245.9kbits/s speed=0.0227x elapsed=0:02:28.10    \nframe=  103 fps=0.7 q=32.7 size=     512KiB time=00:00:03.36 bitrate=1245.9kbits/s speed=0.0226x elapsed=0:02:28.63    \nframe=  103 fps=0.7 q=32.7 size=     512KiB time=00:00:03.36 bitrate=1245.9kbits/s speed=0.0226x elapsed=0:02:29.16    \nframe=  104 fps=0.7 q=38.0 size=     512KiB time=00:00:03.40 bitrate=1233.7kbits/s speed=0.0227x elapsed=0:02:29.68    \nframe=  105 fps=0.7 q=40.7 size=     512KiB time=00:00:03.43 bitrate=1221.7kbits/s speed=0.0229x elapsed=0:02:30.20    \nframe=  105 fps=0.7 q=40.7 size=     512KiB time=00:00:03.43 bitrate=1221.7kbits/s speed=0.0228x elapsed=0:02:30.71    \nframe=  105 fps=0.7 q=40.7 size=     512KiB time=00:00:03.43 bitrate=1221.7kbits/s speed=0.0227x elapsed=0:02:31.22    \nframe=  106 fps=0.7 q=40.8 size=     512KiB time=00:00:03.46 bitrate=1210.0kbits/s speed=0.0228x elapsed=0:02:31.75    \nframe=  106 fps=0.7 q=40.8 size=     512KiB time=00:00:03.46 bitrate=1210.0kbits/s speed=0.0228x elapsed=0:02:32.26    \nframe=  107 fps=0.7 q=32.5 size=     512KiB time=00:00:03.50 bitrate=1198.5kbits/s speed=0.0229x elapsed=0:02:32.79    \nframe=  108 fps=0.7 q=38.3 size=     512KiB time=00:00:03.53 bitrate=1187.2kbits/s speed=0.023x elapsed=0:02:33.31    \nframe=  108 fps=0.7 q=38.3 size=     512KiB time=00:00:03.53 bitrate=1187.2kbits/s speed=0.023x elapsed=0:02:33.82    \nframe=  108 fps=0.7 q=38.3 size=     512KiB time=00:00:03.53 bitrate=1187.2kbits/s speed=0.0229x elapsed=0:02:34.35    \nframe=  108 fps=0.7 q=38.3 size=     512KiB time=00:00:03.53 bitrate=1187.2kbits/s speed=0.0228x elapsed=0:02:34.88    \nframe=  108 fps=0.7 q=38.3 size=     512KiB time=00:00:03.53 bitrate=1187.2kbits/s speed=0.0227x elapsed=0:02:35.40    \nframe=  109 fps=0.7 q=41.0 size=     512KiB time=00:00:03.56 bitrate=1176.1kbits/s speed=0.0229x elapsed=0:02:35.92    \nframe=  110 fps=0.7 q=32.6 size=     512KiB time=00:00:03.60 bitrate=1165.2kbits/s speed=0.023x elapsed=0:02:36.42    \nframe=  110 fps=0.7 q=32.6 size=     512KiB time=00:00:03.60 bitrate=1165.2kbits/s speed=0.0229x elapsed=0:02:36.94    \nframe=  111 fps=0.7 q=38.5 size=     512KiB time=00:00:03.63 bitrate=1154.5kbits/s speed=0.0231x elapsed=0:02:37.46    \nframe=  111 fps=0.7 q=38.5 size=     512KiB time=00:00:03.63 bitrate=1154.5kbits/s speed=0.023x elapsed=0:02:37.98    \nframe=  112 fps=0.7 q=40.7 size=     512KiB time=00:00:03.66 bitrate=1144.0kbits/s speed=0.0231x elapsed=0:02:38.49    \nframe=  112 fps=0.7 q=40.7 size=     512KiB time=00:00:03.66 bitrate=1144.0kbits/s speed=0.0231x elapsed=0:02:39.00    \nframe=  112 fps=0.7 q=40.7 size=     512KiB time=00:00:03.66 bitrate=1144.0kbits/s speed=0.023x elapsed=0:02:39.55    \nframe=  113 fps=0.7 q=40.9 size=     512KiB time=00:00:03.70 bitrate=1133.7kbits/s speed=0.0231x elapsed=0:02:40.10    \nframe=  113 fps=0.7 q=40.9 size=     512KiB time=00:00:03.70 bitrate=1133.7kbits/s speed=0.023x elapsed=0:02:40.61    \nframe=  114 fps=0.7 q=32.9 size=     512KiB time=00:00:03.73 bitrate=1123.6kbits/s speed=0.0232x elapsed=0:02:41.13    \nframe=  114 fps=0.7 q=32.9 size=     512KiB time=00:00:03.73 bitrate=1123.6kbits/s speed=0.0231x elapsed=0:02:41.65    \nframe=  114 fps=0.7 q=32.9 size=     512KiB time=00:00:03.73 bitrate=1123.6kbits/s speed=0.023x elapsed=0:02:42.16    \nframe=  114 fps=0.7 q=32.9 size=     512KiB time=00:00:03.73 bitrate=1123.6kbits/s speed=0.0229x elapsed=0:02:42.69    \nframe=  114 fps=0.7 q=32.9 size=     512KiB time=00:00:03.73 bitrate=1123.6kbits/s speed=0.0229x elapsed=0:02:43.21    \nframe=  115 fps=0.7 q=38.5 size=     512KiB time=00:00:03.76 bitrate=1113.6kbits/s speed=0.023x elapsed=0:02:43.72    \nframe=  115 fps=0.7 q=38.5 size=     512KiB time=00:00:03.76 bitrate=1113.6kbits/s speed=0.0229x elapsed=0:02:44.24    \nframe=  116 fps=0.7 q=40.9 size=     512KiB time=00:00:03.80 bitrate=1103.9kbits/s speed=0.0231x elapsed=0:02:44.76    \nframe=  117 fps=0.7 q=40.7 size=     512KiB time=00:00:03.83 bitrate=1094.3kbits/s speed=0.0232x elapsed=0:02:45.30    \nframe=  117 fps=0.7 q=40.7 size=     512KiB time=00:00:03.83 bitrate=1094.3kbits/s speed=0.0231x elapsed=0:02:45.82    \nframe=  117 fps=0.7 q=40.7 size=     512KiB time=00:00:03.83 bitrate=1094.3kbits/s speed=0.023x elapsed=0:02:46.35    \nframe=  117 fps=0.7 q=40.7 size=     512KiB time=00:00:03.83 bitrate=1094.3kbits/s speed=0.023x elapsed=0:02:46.86    \nframe=  118 fps=0.7 q=33.1 size=     512KiB time=00:00:03.86 bitrate=1084.8kbits/s speed=0.0231x elapsed=0:02:47.40    \nframe=  119 fps=0.7 q=38.6 size=     512KiB time=00:00:03.90 bitrate=1075.6kbits/s speed=0.0232x elapsed=0:02:47.91    \nframe=  119 fps=0.7 q=38.6 size=     512KiB time=00:00:03.90 bitrate=1075.6kbits/s speed=0.0232x elapsed=0:02:48.43    \nframe=  120 fps=0.7 q=40.9 size=     512KiB time=00:00:03.93 bitrate=1066.4kbits/s speed=0.0233x elapsed=0:02:48.95    \nframe=  120 fps=0.7 q=40.9 size=     512KiB time=00:00:03.93 bitrate=1066.4kbits/s speed=0.0232x elapsed=0:02:49.47    \nframe=  120 fps=0.7 q=40.9 size=     512KiB time=00:00:03.93 bitrate=1066.4kbits/s speed=0.0231x elapsed=0:02:50.01    \nframe=  121 fps=0.7 q=41.7 size=     512KiB time=00:00:03.96 bitrate=1057.5kbits/s speed=0.0233x elapsed=0:02:50.53    \nframe=  121 fps=0.7 q=41.7 size=     512KiB time=00:00:03.96 bitrate=1057.5kbits/s speed=0.0232x elapsed=0:02:51.07    \nframe=  121 fps=0.7 q=41.7 size=     512KiB time=00:00:03.96 bitrate=1057.5kbits/s speed=0.0231x elapsed=0:02:51.59    \nframe=  122 fps=0.7 q=33.2 size=     512KiB time=00:00:04.00 bitrate=1048.7kbits/s speed=0.0232x elapsed=0:02:52.11    \nframe=  122 fps=0.7 q=33.2 size=     512KiB time=00:00:04.00 bitrate=1048.7kbits/s speed=0.0232x elapsed=0:02:52.64    \nframe=  122 fps=0.7 q=33.2 size=     512KiB time=00:00:04.00 bitrate=1048.7kbits/s speed=0.0231x elapsed=0:02:53.17    \nframe=  123 fps=0.7 q=39.5 size=     512KiB time=00:00:04.03 bitrate=1040.0kbits/s speed=0.0232x elapsed=0:02:53.69    \nframe=  123 fps=0.7 q=39.5 size=     512KiB time=00:00:04.03 bitrate=1040.0kbits/s speed=0.0231x elapsed=0:02:54.26    \nframe=  123 fps=0.7 q=39.5 size=     512KiB time=00:00:04.03 bitrate=1040.0kbits/s speed=0.0231x elapsed=0:02:54.92    \nframe=  123 fps=0.7 q=39.5 size=     512KiB time=00:00:04.03 bitrate=1040.0kbits/s speed=0.023x elapsed=0:02:55.49    \nframe=  124 fps=0.7 q=41.6 size=     512KiB time=00:00:04.06 bitrate=1031.5kbits/s speed=0.0231x elapsed=0:02:56.03    \nframe=  124 fps=0.7 q=41.6 size=     512KiB time=00:00:04.06 bitrate=1031.5kbits/s speed=0.023x elapsed=0:02:56.56    \nframe=  124 fps=0.7 q=41.6 size=     512KiB time=00:00:04.06 bitrate=1031.5kbits/s speed=0.023x elapsed=0:02:57.09    \nframe=  124 fps=0.7 q=41.6 size=     512KiB time=00:00:04.06 bitrate=1031.5kbits/s speed=0.0229x elapsed=0:02:57.60    \nframe=  125 fps=0.7 q=41.6 size=     512KiB time=00:00:04.10 bitrate=1023.1kbits/s speed=0.023x elapsed=0:02:58.14    \nframe=  126 fps=0.7 q=41.8 size=     512KiB time=00:00:04.13 bitrate=1014.8kbits/s speed=0.0231x elapsed=0:02:58.70    \nframe=  126 fps=0.7 q=41.8 size=     512KiB time=00:00:04.13 bitrate=1014.8kbits/s speed=0.0231x elapsed=0:02:59.22    \nframe=  126 fps=0.7 q=41.8 size=     512KiB time=00:00:04.13 bitrate=1014.8kbits/s speed=0.023x elapsed=0:02:59.73    \nframe=  126 fps=0.7 q=41.8 size=     512KiB time=00:00:04.13 bitrate=1014.8kbits/s speed=0.0229x elapsed=0:03:00.29    \nframe=  126 fps=0.7 q=41.8 size=     512KiB time=00:00:04.13 bitrate=1014.8kbits/s speed=0.0229x elapsed=0:03:00.83    \nframe=  127 fps=0.7 q=33.7 size=     512KiB time=00:00:04.16 bitrate=1006.7kbits/s speed=0.023x elapsed=0:03:01.36    \nframe=  127 fps=0.7 q=33.7 size=     512KiB time=00:00:04.16 bitrate=1006.7kbits/s speed=0.0229x elapsed=0:03:01.89    \nframe=  128 fps=0.7 q=38.9 size=     768KiB time=00:00:04.20 bitrate=1498.0kbits/s speed=0.023x elapsed=0:03:02.42    \nframe=  128 fps=0.7 q=38.9 size=     768KiB time=00:00:04.20 bitrate=1498.0kbits/s speed=0.023x elapsed=0:03:02.96    \nframe=  128 fps=0.7 q=38.9 size=     768KiB time=00:00:04.20 bitrate=1498.0kbits/s speed=0.0229x elapsed=0:03:03.47    \nframe=  128 fps=0.7 q=38.9 size=     768KiB time=00:00:04.20 bitrate=1498.0kbits/s speed=0.0228x elapsed=0:03:04.00    \nframe=  128 fps=0.7 q=38.9 size=     768KiB time=00:00:04.20 bitrate=1498.0kbits/s speed=0.0228x elapsed=0:03:04.52    \nframe=  128 fps=0.7 q=38.9 size=     768KiB time=00:00:04.20 bitrate=1498.0kbits/s speed=0.0227x elapsed=0:03:05.05    \nframe=  129 fps=0.7 q=41.9 size=     768KiB time=00:00:04.23 bitrate=1486.3kbits/s speed=0.0228x elapsed=0:03:05.60    \nframe=  130 fps=0.7 q=40.9 size=     768KiB time=00:00:04.26 bitrate=1474.6kbits/s speed=0.0229x elapsed=0:03:06.13    \nframe=  130 fps=0.7 q=40.9 size=     768KiB time=00:00:04.26 bitrate=1474.6kbits/s speed=0.0229x elapsed=0:03:06.65    \nframe=  130 fps=0.7 q=40.9 size=     768KiB time=00:00:04.26 bitrate=1474.6kbits/s speed=0.0228x elapsed=0:03:07.21    \nframe=  130 fps=0.7 q=40.9 size=     768KiB time=00:00:04.26 bitrate=1474.6kbits/s speed=0.0227x elapsed=0:03:07.76    \nframe=  131 fps=0.7 q=32.9 size=     768KiB time=00:00:04.30 bitrate=1463.2kbits/s speed=0.0228x elapsed=0:03:08.27    \nframe=  132 fps=0.7 q=38.3 size=     768KiB time=00:00:04.33 bitrate=1452.0kbits/s speed=0.023x elapsed=0:03:08.79    \nframe=  132 fps=0.7 q=38.3 size=     768KiB time=00:00:04.33 bitrate=1452.0kbits/s speed=0.0229x elapsed=0:03:09.31    \nframe=  133 fps=0.7 q=41.6 size=     768KiB time=00:00:04.36 bitrate=1440.9kbits/s speed=0.023x elapsed=0:03:09.84    \nframe=  133 fps=0.7 q=41.6 size=     768KiB time=00:00:04.36 bitrate=1440.9kbits/s speed=0.0229x elapsed=0:03:10.37    \nframe=  133 fps=0.7 q=41.6 size=     768KiB time=00:00:04.36 bitrate=1440.9kbits/s speed=0.0229x elapsed=0:03:10.88    \nframe=  134 fps=0.7 q=41.7 size=     768KiB time=00:00:04.40 bitrate=1430.0kbits/s speed=0.023x elapsed=0:03:11.41    \nframe=  134 fps=0.7 q=41.7 size=     768KiB time=00:00:04.40 bitrate=1430.0kbits/s speed=0.0229x elapsed=0:03:11.93    \nframe=  134 fps=0.7 q=41.7 size=     768KiB time=00:00:04.40 bitrate=1430.0kbits/s speed=0.0229x elapsed=0:03:12.47    \nframe=  134 fps=0.7 q=41.7 size=     768KiB time=00:00:04.40 bitrate=1430.0kbits/s speed=0.0228x elapsed=0:03:13.01    \nframe=  134 fps=0.7 q=41.7 size=     768KiB time=00:00:04.40 bitrate=1430.0kbits/s speed=0.0227x elapsed=0:03:13.53    \nframe=  135 fps=0.7 q=33.4 size=     768KiB time=00:00:04.43 bitrate=1419.2kbits/s speed=0.0228x elapsed=0:03:14.04    \nframe=  136 fps=0.7 q=39.3 size=     768KiB time=00:00:04.46 bitrate=1408.6kbits/s speed=0.023x elapsed=0:03:14.56    \nframe=  136 fps=0.7 q=39.3 size=     768KiB time=00:00:04.46 bitrate=1408.6kbits/s speed=0.0229x elapsed=0:03:15.07    \nframe=  137 fps=0.7 q=41.6 size=     768KiB time=00:00:04.50 bitrate=1398.2kbits/s speed=0.023x elapsed=0:03:15.58    \nframe=  138 fps=0.7 q=40.4 size=     768KiB time=00:00:04.53 bitrate=1387.9kbits/s speed=0.0231x elapsed=0:03:16.12    \nframe=  138 fps=0.7 q=40.4 size=     768KiB time=00:00:04.53 bitrate=1387.9kbits/s speed=0.0231x elapsed=0:03:16.66    \nframe=  138 fps=0.7 q=40.4 size=     768KiB time=00:00:04.53 bitrate=1387.9kbits/s speed=0.023x elapsed=0:03:17.18    \nframe=  138 fps=0.7 q=40.4 size=     768KiB time=00:00:04.53 bitrate=1387.9kbits/s speed=0.0229x elapsed=0:03:17.70    \nframe=  139 fps=0.7 q=40.8 size=     768KiB time=00:00:04.56 bitrate=1377.8kbits/s speed=0.023x elapsed=0:03:18.21    \nframe=  139 fps=0.7 q=40.8 size=     768KiB time=00:00:04.56 bitrate=1377.8kbits/s speed=0.023x elapsed=0:03:18.74    \nframe=  139 fps=0.7 q=40.8 size=     768KiB time=00:00:04.56 bitrate=1377.8kbits/s speed=0.0229x elapsed=0:03:19.27    \nframe=  139 fps=0.7 q=40.8 size=     768KiB time=00:00:04.56 bitrate=1377.8kbits/s speed=0.0229x elapsed=0:03:19.81    \nframe=  140 fps=0.7 q=34.0 size=     768KiB time=00:00:04.60 bitrate=1367.8kbits/s speed=0.023x elapsed=0:03:20.34    \nframe=  141 fps=0.7 q=38.2 size=     768KiB time=00:00:04.63 bitrate=1357.9kbits/s speed=0.0231x elapsed=0:03:20.85    \nframe=  141 fps=0.7 q=38.2 size=     768KiB time=00:00:04.63 bitrate=1357.9kbits/s speed=0.023x elapsed=0:03:21.38    \nframe=  141 fps=0.7 q=38.2 size=     768KiB time=00:00:04.63 bitrate=1357.9kbits/s speed=0.023x elapsed=0:03:21.88    \nframe=  142 fps=0.7 q=40.7 size=     768KiB time=00:00:04.66 bitrate=1348.2kbits/s speed=0.0231x elapsed=0:03:22.41    \nframe=  143 fps=0.7 q=40.8 size=     768KiB time=00:00:04.70 bitrate=1338.7kbits/s speed=0.0232x elapsed=0:03:22.95    \nframe=  144 fps=0.7 q=34.1 size=     768KiB time=00:00:04.73 bitrate=1329.3kbits/s speed=0.0233x elapsed=0:03:23.48    \nframe=  144 fps=0.7 q=34.1 size=     768KiB time=00:00:04.73 bitrate=1329.3kbits/s speed=0.0232x elapsed=0:03:24.03    \nframe=  144 fps=0.7 q=34.1 size=     768KiB time=00:00:04.73 bitrate=1329.3kbits/s speed=0.0231x elapsed=0:03:24.55    \nframe=  144 fps=0.7 q=34.1 size=     768KiB time=00:00:04.73 bitrate=1329.3kbits/s speed=0.0231x elapsed=0:03:25.09    \nframe=  145 fps=0.7 q=39.4 size=     768KiB time=00:00:04.76 bitrate=1320.0kbits/s speed=0.0232x elapsed=0:03:25.61    \nframe=  146 fps=0.7 q=40.4 size=     768KiB time=00:00:04.80 bitrate=1310.8kbits/s speed=0.0233x elapsed=0:03:26.11    \nframe=  146 fps=0.7 q=40.4 size=     768KiB time=00:00:04.80 bitrate=1310.8kbits/s speed=0.0232x elapsed=0:03:26.63    \nframe=  146 fps=0.7 q=40.4 size=     768KiB time=00:00:04.80 bitrate=1310.8kbits/s speed=0.0232x elapsed=0:03:27.16    \nframe=  146 fps=0.7 q=40.4 size=     768KiB time=00:00:04.80 bitrate=1310.8kbits/s speed=0.0231x elapsed=0:03:27.68    \nframe=  147 fps=0.7 q=35.1 size=     768KiB time=00:00:04.83 bitrate=1301.8kbits/s speed=0.0232x elapsed=0:03:28.20    \nframe=  148 fps=0.7 q=34.4 size=     768KiB time=00:00:04.86 bitrate=1292.8kbits/s speed=0.0233x elapsed=0:03:28.73    \nframe=  148 fps=0.7 q=34.4 size=     768KiB time=00:00:04.86 bitrate=1292.8kbits/s speed=0.0233x elapsed=0:03:29.27    \n[mp4 @ 00000272e13fa980] Starting second pass: moving the moov atom to the beginning of the file\n[out#0/mp4 @ 00000272e1401700] video:900KiB audio:0KiB subtitle:0KiB other streams:0KiB global headers:2KiB muxing overhead: 0.571792%\nframe=  150 fps=0.7 q=37.6 Lsize=     906KiB time=00:00:04.93 bitrate=1503.7kbits/s speed=0.0235x elapsed=0:03:29.50    \nx265 [info]: frame I:      1, Avg QP:38.57  kb/s: 6138.72 \nx265 [info]: frame P:     38, Avg QP:33.49  kb/s: 4307.21 \nx265 [info]: frame B:    111, Avg QP:39.29  kb/s: 462.40  \nx265 [info]: Weighted P-Frames: Y:39.5% UV:34.2%\n\nencoded 150 frames in 208.76s (0.72 fps), 1474.26 kb/s, Avg QP:37.82\n",
  "seconds": 209.98234009742737,
  "probe_out": {}
}